# xmcd
#
# Track frame offsets:
#	150
#	14902
#	28962
#	42205
#	61962
#	73947
#	91742
#	106110
#	124450
#	138907
#	153642
#	167770
#	181162
#	194495
#
# Disc length: 2802 seconds
#
# Revision: 0
# Processed by: cddbd v1.5.1PL0 Copyright (c) Steve Scherf et al.
# Submitted via: dBpowerAMP V4.0
#
DISCID=c90af00e
DTITLE=Various Artist - Legends of the Old West
DYEAR=2000
DGENRE=Instrumental
TTITLE0=Back in the Saddle Again
TTITLE1=The Streets of Laredo
TTITLE2=Rawhide
TTITLE3=El Paso
TTITLE4=Sioux City Sue
TTITLE5=Riding Down the Canyon
TTITLE6=The Cattle Call
TTITLE7=Big Iron
TTITLE8=Have I Told You Lately That I Love You
TTITLE9=South of the Border
TTITLE10=Here Comes the Sante Fe
TTITLE11=Mexicali Rose
TTITLE12=That Silver Haired Daddy of Mine
TTITLE13=You Are My Sunshine
EXTD=
EXTT0=
EXTT1=
EXTT2=
EXTT3=
EXTT4=
EXTT5=
EXTT6=
EXTT7=
EXTT8=
EXTT9=
EXTT10=
EXTT11=
EXTT12=
EXTT13=
PLAYORDER=
